<svg width="130" height="150" viewBox="0 0 130 150" fill="none" xmlns="http://www.w3.org/2000/svg">
<path fill-rule="evenodd" clip-rule="evenodd" d="M65 0L129.952 37.5V93.3201H120.983C117.444 93.3201 114.576 90.4513 114.576 86.9125V55.9076C114.576 48.5028 108.573 42.5 101.168 42.5C93.7632 42.5 87.7605 48.5028 87.7605 55.9076V86.9125C87.7605 90.4513 84.8917 93.3201 81.3529 93.3201C77.7832 93.3201 74.8895 90.4263 74.8895 86.8566V55.8796C74.8895 48.4903 68.8992 42.5 61.5098 42.5C54.1205 42.5 48.1302 48.4903 48.1302 55.8796V86.9125C48.1302 90.4513 45.2615 93.3201 41.7227 93.3201C38.1839 93.3201 35.3151 90.4513 35.3151 86.9125V55.9076C35.3151 48.5028 29.3123 42.5 21.9076 42.5C14.5028 42.5 8.5 48.5028 8.5 55.9076V71.41V96.8201H15.5V71.41V55.9076C15.5 52.3688 18.3688 49.5 21.9076 49.5C25.4464 49.5 28.3151 52.3688 28.3151 55.9076V86.9125C28.3151 94.3173 34.3179 100.32 41.7227 100.32C49.1275 100.32 55.1302 94.3173 55.1302 86.9125V55.8796C55.1302 52.3563 57.9865 49.5 61.5098 49.5C65.0332 49.5 67.8895 52.3563 67.8895 55.8796V86.8566C67.8895 94.2923 73.9173 100.32 81.3529 100.32C83.7716 100.32 86.0408 99.6796 88 98.559V136.721L65 150L0.0480957 112.5V37.5L65 0ZM94.75 132.824L129.952 112.5V100.32H120.983C113.578 100.32 107.576 94.3173 107.576 86.9125V55.9076C107.576 52.3688 104.707 49.5 101.168 49.5C97.6292 49.5 94.7605 52.3688 94.7605 55.9076V86.9125C94.7605 87.0916 94.757 87.2699 94.75 87.4473V132.824Z" fill="black"/>
</svg>
