<svg width="447" height="520" viewBox="0 0 447 520" fill="none" xmlns="http://www.w3.org/2000/svg">
<path d="M225 0L450.167 130V390L225 520L-0.166611 390V130L225 0Z" fill="#F4DD4B"/>
<path d="M37.5 309V196.25C37.5 175.677 54.1774 159 74.75 159V159C95.3226 159 112 175.677 112 196.25V309" stroke="white" stroke-width="33"/>
<path d="M186.5 309V196.25C186.5 175.677 203.177 159 223.75 159V159C244.323 159 261 175.677 261 196.25V309" stroke="white" stroke-width="33"/>
<path d="M335.5 309V196.25C335.5 175.677 352.177 159 372.75 159V159C393.323 159 410 175.677 410 196.25V309" stroke="white" stroke-width="33"/>
<path d="M186.5 196L186.5 308.75C186.5 329.323 169.823 346 149.25 346V346C128.677 346 112 329.323 112 308.75L112 196" stroke="white" stroke-width="33"/>
<path d="M37.5 196L37.5 308.75C37.5 329.323 20.8226 346 0.25 346V346C-20.3226 346 -37 329.323 -37 308.75L-37 196" stroke="white" stroke-width="33"/>
<path d="M335.5 196L335.5 308.75C335.5 329.323 318.823 346 298.25 346V346C277.677 346 261 329.323 261 308.75L261 196" stroke="white" stroke-width="33"/>
<path d="M484.5 196L484.5 308.75C484.5 329.323 467.823 346 447.25 346V346C426.677 346 410 329.323 410 308.75L410 196" stroke="white" stroke-width="33"/>
<line x1="335" y1="219" x2="335" y2="582" stroke="white" stroke-width="33"/>
<g filter="url(#filter0_d_114_31)">
<line x1="335" y1="314" x2="335" y2="359" stroke="white" stroke-width="33"/>
</g>
<line x1="335" y1="304" x2="335" y2="372" stroke="white" stroke-width="33"/>
<defs>
<filter id="filter0_d_114_31" x="306.5" y="310" width="49" height="61" filterUnits="userSpaceOnUse" color-interpolation-filters="sRGB">
<feFlood flood-opacity="0" result="BackgroundImageFix"/>
<feColorMatrix in="SourceAlpha" type="matrix" values="0 0 0 0 0 0 0 0 0 0 0 0 0 0 0 0 0 0 127 0" result="hardAlpha"/>
<feOffset dx="-4" dy="4"/>
<feGaussianBlur stdDeviation="4"/>
<feComposite in2="hardAlpha" operator="out"/>
<feColorMatrix type="matrix" values="0 0 0 0 0 0 0 0 0 0 0 0 0 0 0 0 0 0 0.25 0"/>
<feBlend mode="normal" in2="BackgroundImageFix" result="effect1_dropShadow_114_31"/>
<feBlend mode="normal" in="SourceGraphic" in2="effect1_dropShadow_114_31" result="shape"/>
</filter>
</defs>
</svg>
